<svg xmlns="http://www.w3.org/2000/svg" viewBox="0 0 1200 800" width="1200" height="800">
  <defs>
    <linearGradient id="bgGradient" x1="0%" y1="0%" x2="100%" y2="100%">
      <stop offset="0%" style="stop-color:#0f172a;stop-opacity:1" />
      <stop offset="100%" style="stop-color:#1e293b;stop-opacity:1" />
    </linearGradient>
    <linearGradient id="accentGreen" x1="0%" y1="0%" x2="100%" y2="0%">
      <stop offset="0%" style="stop-color:#10b981;stop-opacity:1" />
      <stop offset="100%" style="stop-color:#059669;stop-opacity:1" />
    </linearGradient>
    <linearGradient id="accentRed" x1="0%" y1="0%" x2="100%" y2="0%">
      <stop offset="0%" style="stop-color:#ef4444;stop-opacity:1" />
      <stop offset="100%" style="stop-color:#dc2626;stop-opacity:1" />
    </linearGradient>
    <filter id="glow">
      <feGaussianBlur stdDeviation="2" result="coloredBlur"/>
      <feMerge>
        <feMergeNode in="coloredBlur"/>
        <feMergeNode in="SourceGraphic"/>
      </feMerge>
    </filter>
  </defs>
  
  <rect width="1200" height="800" fill="url(#bgGradient)"/>
  
  <!-- Header -->
  <rect x="0" y="0" width="1200" height="60" fill="#0f172a" stroke="#334155" stroke-width="1"/>
  <text x="40" y="38" fill="#3b82f6" font-family="monospace" font-size="20" font-weight="bold">📈 AI-Trader</text>
  <text x="220" y="38" fill="#94a3b8" font-family="monospace" font-size="14">智能交易助手平台</text>
  
  <!-- Navigation -->
  <rect x="500" y="15" width="80" height="30" fill="#1e3a5f" rx="5" ry="5"/>
  <text x="540" y="35" fill="#fff" font-family="Arial, sans-serif" font-size="12" text-anchor="middle">仪表盘</text>
  <rect x="590" y="15" width="80" height="30" fill="transparent"/>
  <text x="630" y="35" fill="#94a3b8" font-family="Arial, sans-serif" font-size="12" text-anchor="middle">AI对话</text>
  <rect x="680" y="15" width="80" height="30" fill="transparent"/>
  <text x="720" y="35" fill="#94a3b8" font-family="Arial, sans-serif" font-size="12" text-anchor="middle">策略</text>
  <rect x="770" y="15" width="80" height="30" fill="transparent"/>
  <text x="810" y="35" fill="#94a3b8" font-family="Arial, sans-serif" font-size="12" text-anchor="middle">市场</text>
  <rect x="860" y="15" width="80" height="30" fill="transparent"/>
  <text x="900" y="35" fill="#94a3b8" font-family="Arial, sans-serif" font-size="12" text-anchor="middle">风险</text>
  
  <!-- User Avatar -->
  <circle cx="1140" cy="30" r="15" fill="#3b82f6"/>
  <text x="1140" y="35" fill="#fff" font-family="Arial, sans-serif" font-size="12" text-anchor="middle">D</text>
  
  <!-- Main Dashboard -->
  <!-- Portfolio Overview -->
  <rect x="20" y="80" width="380" height="200" fill="#1e293b" rx="10" ry="10" stroke="#334155" stroke-width="1"/>
  <text x="40" y="115" fill="#f59e0b" font-family="Arial, sans-serif" font-size="18" font-weight="bold">💰 投资组合概览</text>
  
  <text x="40" y="155" fill="#94a3b8" font-family="monospace" font-size="12">总资产</text>
  <text x="40" y="185" fill="#fff" font-family="monospace" font-size="32" font-weight="bold">$128,456.78</text>
  <text x="280" y="185" fill="#10b981" font-family="monospace" font-size="16" font-weight="bold">+2.34%</text>
  <text x="340" y="185" fill="#10b981" font-family="monospace" font-size="14">+$2,934.56</text>
  
  <text x="40" y="220" fill="#94a3b8" font-family="monospace" font-size="12">今日盈亏</text>
  <text x="40" y="245" fill="#10b981" font-family="monospace" font-size="20" font-weight="bold">+$856.32</text>
  
  <text x="180" y="220" fill="#94a3b8" font-family="monospace" font-size="12">持仓数量</text>
  <text x="180" y="245" fill="#3b82f6" font-family="monospace" font-size="20" font-weight="bold">12</text>
  
  <text x="280" y="220" fill="#94a3b8" font-family="monospace" font-size="12">胜率</text>
  <text x="280" y="245" fill="#f59e0b" font-family="monospace" font-size="20" font-weight="bold">68.5%</text>
  
  <!-- AI Chat Panel -->
  <rect x="420" y="80" width="380" height="350" fill="#1e293b" rx="10" ry="10" stroke="#334155" stroke-width="1"/>
  <text x="440" y="115" fill="#8b5cf6" font-family="Arial, sans-serif" font-size="18" font-weight="bold">🤖 AI 交易助手</text>
  
  <!-- Chat Messages -->
  <rect x="440" y="135" width="300" height="60" fill="#0f172a" rx="8" ry="8"/>
  <text x="455" y="155" fill="#94a3b8" font-family="monospace" font-size="10">市场分析师 · 10:30</text>
  <text x="455" y="178" fill="#fff" font-family="Arial, sans-serif" font-size="12">BTC 突破 70,000 阻力位，成交量放大，建议关注...</text>
  
  <rect x="480" y="205" width="300" height="50" fill="#1e3a5f" rx="8" ry="8"/>
  <text x="765" y="225" fill="#94a3b8" font-family="monospace" font-size="10">你 · 10:31</text>
  <text x="495" y="245" fill="#fff" font-family="Arial, sans-serif" font-size="12">当前 ETH 适合建仓吗？</text>
  
  <rect x="440" y="265" width="300" height="70" fill="#0f172a" rx="8" ry="8"/>
  <text x="455" y="285" fill="#94a3b8" font-family="monospace" font-size="10">量化研究员 · 10:31</text>
  <text x="455" y="308" fill="#fff" font-family="Arial, sans-serif" font-size="12">ETH 日线级别处于上升趋势，RSI 62，</text>
  <text x="455" y="325" fill="#fff" font-family="Arial, sans-serif" font-size="12">建议分批建仓，止损位 3,800</text>
  
  <!-- Quick Actions -->
  <rect x="440" y="345" width="80" height="25" fill="#3b82f6" rx="5" ry="5"/>
  <text x="480" y="362" fill="#fff" font-family="Arial, sans-serif" font-size="10" text-anchor="middle">📊 分析</text>
  <rect x="530" y="345" width="80" height="25" fill="#10b981" rx="5" ry="5"/>
  <text x="570" y="362" fill="#fff" font-family="Arial, sans-serif" font-size="10" text-anchor="middle">📈 策略</text>
  <rect x="620" y="345" width="80" height="25" fill="#f59e0b" rx="5" ry="5"/>
  <text x="660" y="362" fill="#fff" font-family="Arial, sans-serif" font-size="10" text-anchor="middle">⚠️ 风险</text>
  
  <!-- Input Box -->
  <rect x="440" y="385" width="340" height="35" fill="#0f172a" rx="17" ry="17" stroke="#334155" stroke-width="1"/>
  <text x="460" y="407" fill="#64748b" font-family="Arial, sans-serif" font-size="12">输入你的问题...</text>
  <circle cx="760" cy="402" r="12" fill="#3b82f6"/>
  <text x="760" y="407" fill="#fff" font-family="Arial, sans-serif" font-size="10" text-anchor="middle">➤</text>
  
  <!-- Market Data -->
  <rect x="820" y="80" width="360" height="350" fill="#1e293b" rx="10" ry="10" stroke="#334155" stroke-width="1"/>
  <text x="840" y="115" fill="#f59e0b" font-family="Arial, sans-serif" font-size="18" font-weight="bold">📊 实时行情</text>
  
  <!-- Crypto List -->
  <g transform="translate(840, 135)">
    <rect width="320" height="50" fill="#0f172a" rx="5" ry="5"/>
    <text x="15" y="22" fill="#fff" font-family="Arial, sans-serif" font-size="14" font-weight="bold">BTC</text>
    <text x="15" y="40" fill="#94a3b8" font-family="monospace" font-size="10">Bitcoin</text>
    <text x="200" y="22" fill="#fff" font-family="monospace" font-size="14" font-weight="bold">$70,234.56</text>
    <text x="280" y="22" fill="#10b981" font-family="monospace" font-size="12" font-weight="bold">+3.24%</text>
  </g>
  
  <g transform="translate(840, 195)">
    <rect width="320" height="50" fill="#0f172a" rx="5" ry="5"/>
    <text x="15" y="22" fill="#fff" font-family="Arial, sans-serif" font-size="14" font-weight="bold">ETH</text>
    <text x="15" y="40" fill="#94a3b8" font-family="monospace" font-size="10">Ethereum</text>
    <text x="200" y="22" fill="#fff" font-family="monospace" font-size="14" font-weight="bold">$3,892.14</text>
    <text x="280" y="22" fill="#10b981" font-family="monospace" font-size="12" font-weight="bold">+1.87%</text>
  </g>
  
  <g transform="translate(840, 255)">
    <rect width="320" height="50" fill="#0f172a" rx="5" ry="5"/>
    <text x="15" y="22" fill="#fff" font-family="Arial, sans-serif" font-size="14" font-weight="bold">SOL</text>
    <text x="15" y="40" fill="#94a3b8" font-family="monospace" font-size="10">Solana</text>
    <text x="200" y="22" fill="#fff" font-family="monospace" font-size="14" font-weight="bold">$156.78</text>
    <text x="280" y="22" fill="#ef4444" font-family="monospace" font-size="12" font-weight="bold">-0.56%</text>
  </g>
  
  <g transform="translate(840, 315)">
    <rect width="320" height="50" fill="#0f172a" rx="5" ry="5"/>
    <text x="15" y="22" fill="#fff" font-family="Arial, sans-serif" font-size="14" font-weight="bold">BNB</text>
    <text x="15" y="40" fill="#94a3b8" font-family="monospace" font-size="10">Binance Coin</text>
    <text x="200" y="22" fill="#fff" font-family="monospace" font-size="14" font-weight="bold">$598.32</text>
    <text x="280" y="22" fill="#10b981" font-family="monospace" font-size="12" font-weight="bold">+0.92%</text>
  </g>
  
  <!-- Chart -->
  <rect x="20" y="300" width="380" height="200" fill="#1e293b" rx="10" ry="10" stroke="#334155" stroke-width="1"/>
  <text x="40" y="335" fill="#3b82f6" font-family="Arial, sans-serif" font-size="18" font-weight="bold">📈 收益曲线</text>
  
  <!-- Chart Axes -->
  <line x1="40" y1="470" x2="380" y2="470" stroke="#475569" stroke-width="1"/>
  <line x1="40" y1="350" x2="40" y2="470" stroke="#475569" stroke-width="1"/>
  
  <!-- Chart Curve -->
  <path d="M 40 450 Q 100 440 160 420 T 280 380 T 380 360" fill="none" stroke="#10b981" stroke-width="2"/>
  <path d="M 40 450 L 40 470 L 380 470 L 380 360 Z" fill="url(#accentGreen)" opacity="0.1"/>
  
  <!-- Labels -->
  <text x="40" y="485" fill="#64748b" font-family="monospace" font-size="10">1月</text>
  <text x="125" y="485" fill="#64748b" font-family="monospace" font-size="10">2月</text>
  <text x="210" y="485" fill="#64748b" font-family="monospace" font-size="10">3月</text>
  <text x="295" y="485" fill="#64748b" font-family="monospace" font-size="10">4月</text>
  <text x="365" y="485" fill="#64748b" font-family="monospace" font-size="10">5月</text>
  
  <!-- Risk Dashboard -->
  <rect x="420" y="450" width="380" height="200" fill="#1e293b" rx="10" ry="10" stroke="#334155" stroke-width="1"/>
  <text x="440" y="485" fill="#ef4444" font-family="Arial, sans-serif" font-size="18" font-weight="bold">⚠️ 风险仪表盘</text>
  
  <!-- Risk Metrics -->
  <g transform="translate(440, 505)">
    <rect width="160" height="60" fill="#0f172a" rx="5" ry="5" stroke="#f59e0b" stroke-width="1"/>
    <text x="80" y="25" fill="#94a3b8" font-family="monospace" font-size="10" text-anchor="middle">最大回撤</text>
    <text x="80" y="50" fill="#f59e0b" font-family="monospace" font-size="18" font-weight="bold" text-anchor="middle">-12.3%</text>
  </g>
  
  <g transform="translate(620, 505)">
    <rect width="160" height="60" fill="#0f172a" rx="5" ry="5" stroke="#10b981" stroke-width="1"/>
    <text x="80" y="25" fill="#94a3b8" font-family="monospace" font-size="10" text-anchor="middle">夏普比率</text>
    <text x="80" y="50" fill="#10b981" font-family="monospace" font-size="18" font-weight="bold" text-anchor="middle">1.85</text>
  </g>
  
  <g transform="translate(440, 575)">
    <rect width="160" height="60" fill="#0f172a" rx="5" ry="5" stroke="#3b82f6" stroke-width="1"/>
    <text x="80" y="25" fill="#94a3b8" font-family="monospace" font-size="10" text-anchor="middle">集中度风险</text>
    <text x="80" y="50" fill="#3b82f6" font-family="monospace" font-size="18" font-weight="bold" text-anchor="middle">中</text>
  </g>
  
  <g transform="translate(620, 575)">
    <rect width="160" height="60" fill="#0f172a" rx="5" ry="5" stroke="#8b5cf6" stroke-width="1"/>
    <text x="80" y="25" fill="#94a3b8" font-family="monospace" font-size="10" text-anchor="middle">净敞口</text>
    <text x="80" y="50" fill="#8b5cf6" font-family="monospace" font-size="18" font-weight="bold" text-anchor="middle">65%</text>
  </g>
  
  <!-- Strategy Editor -->
  <rect x="820" y="450" width="360" height="200" fill="#1e293b" rx="10" ry="10" stroke="#334155" stroke-width="1"/>
  <text x="840" y="485" fill="#8b5cf6" font-family="Arial, sans-serif" font-size="18" font-weight="bold">📝 策略编辑器</text>
  
  <!-- Code Editor -->
  <rect x="840" y="505" width="320" height="120" fill="#0f172a" rx="5" ry="5"/>
  <text x="855" y="530" fill="#64748b" font-family="monospace" font-size="10"># 均线交叉策略</text>
  <text x="855" y="550" fill="#10b981" font-family="monospace" font-size="10">if MA5 > MA20:</text>
  <text x="870" y="570" fill="#3b82f6" font-family="monospace" font-size="10">    buy(symbol, amount=0.1)</text>
  <text x="855" y="590" fill="#ef4444" font-family="monospace" font-size="10">elif MA5 < MA20:</text>
  <text x="870" y="610" fill="#f59e0b" font-family="monospace" font-size="10">    sell(symbol, amount=0.1)</text>
  
  <rect x="840" y="635" width="100" height="30" fill="#8b5cf6" rx="5" ry="5"/>
  <text x="890" y="655" fill="#fff" font-family="Arial, sans-serif" font-size="12" font-weight="bold" text-anchor="middle">▶ 回测</text>
  <rect x="950" y="635" width="100" height="30" fill="#10b981" rx="5" ry="5"/>
  <text x="1000" y="655" fill="#fff" font-family="Arial, sans-serif" font-size="12" font-weight="bold" text-anchor="middle">💾 保存</text>
  
  <!-- Footer Stats -->
  <rect x="0" y="670" width="1200" height="130" fill="#0f172a"/>
  
  <g transform="translate(40, 700)">
    <rect width="150" height="80" fill="#1e293b" rx="8" ry="8"/>
    <text x="75" y="30" fill="#94a3b8" font-family="monospace" font-size="11" text-anchor="middle">AI 角色</text>
    <text x="75" y="60" fill="#3b82f6" font-family="monospace" font-size="16" font-weight="bold" text-anchor="middle">4 种</text>
  </g>
  
  <g transform="translate(210, 700)">
    <rect width="150" height="80" fill="#1e293b" rx="8" ry="8"/>
    <text x="75" y="30" fill="#94a3b8" font-family="monospace" font-size="11" text-anchor="middle">交易所</text>
    <text x="75" y="60" fill="#f59e0b" font-family="monospace" font-size="16" font-weight="bold" text-anchor="middle">5+</text>
  </g>
  
  <g transform="translate(380, 700)">
    <rect width="150" height="80" fill="#1e293b" rx="8" ry="8"/>
    <text x="75" y="30" fill="#94a3b8" font-family="monospace" font-size="11" text-anchor="middle">策略模板</text>
    <text x="75" y="60" fill="#10b981" font-family="monospace" font-size="16" font-weight="bold" text-anchor="middle">20+</text>
  </g>
  
  <g transform="translate(550, 700)">
    <rect width="150" height="80" fill="#1e293b" rx="8" ry="8"/>
    <text x="75" y="30" fill="#94a3b8" font-family="monospace" font-size="11" text-anchor="middle">风险指标</text>
    <text x="75" y="60" fill="#ef4444" font-family="monospace" font-size="16" font-weight="bold" text-anchor="middle">10+</text>
  </g>
  
  <g transform="translate(720, 700)">
    <rect width="150" height="80" fill="#1e293b" rx="8" ry="8"/>
    <text x="75" y="30" fill="#94a3b8" font-family="monospace" font-size="11" text-anchor="middle">回测引擎</text>
    <text x="75" y="60" fill="#8b5cf6" font-family="monospace" font-size="16" font-weight="bold" text-anchor="middle">内置</text>
  </g>
  
  <g transform="translate(890, 700)">
    <rect width="150" height="80" fill="#1e293b" rx="8" ry="8"/>
    <text x="75" y="30" fill="#94a3b8" font-family="monospace" font-size="11" text-anchor="middle">多语言</text>
    <text x="75" y="60" fill="#06b6d4" font-family="monospace" font-size="16" font-weight="bold" text-anchor="middle">中/英</text>
  </g>
  
  <g transform="translate(1060, 700)">
    <rect width="100" height="80" fill="#1e293b" rx="8" ry="8"/>
    <text x="50" y="30" fill="#94a3b8" font-family="monospace" font-size="11" text-anchor="middle">UI</text>
    <text x="50" y="60" fill="#f472b6" font-family="monospace" font-size="16" font-weight="bold" text-anchor="middle">极简</text>
  </g>
</svg>
